<svg width="800" height="800" viewBox="0 0 800 800" fill="none" xmlns="http://www.w3.org/2000/svg">
<path d="M359 610C309.357 610 260.828 595.28 219.552 567.7C178.275 540.12 146.104 500.917 127.106 455.053C108.108 409.19 103.138 358.72 112.823 310.032C122.508 261.343 146.413 216.619 181.516 181.516C216.619 146.413 261.343 122.508 310.032 112.823C358.72 103.138 409.19 108.108 455.053 127.106C500.917 146.104 540.12 178.275 567.7 219.552C595.28 260.828 610 309.357 610 359C609.91 425.543 583.44 489.333 536.387 536.387C489.333 583.44 425.543 609.91 359 610ZM359 158.333C319.444 158.333 280.776 170.063 247.886 192.039C214.996 214.015 189.361 245.251 174.224 281.796C159.086 318.342 155.126 358.553 162.843 397.35C170.56 436.147 189.608 471.783 217.578 499.753C245.549 527.723 281.185 546.773 319.982 554.49C358.777 562.207 398.99 558.247 435.537 543.11C472.08 527.97 503.317 502.337 525.293 469.447C547.27 436.557 559 397.89 559 358.333C559 305.29 537.93 254.419 500.42 216.912C462.913 179.404 412.043 158.333 359 158.333Z" fill="#FFD14C"/>
<path d="M666.667 691.667C663.383 691.68 660.127 691.04 657.093 689.78C654.06 688.523 651.307 686.67 649 684.333L511.333 546.667C506.917 541.927 504.513 535.657 504.627 529.18C504.74 522.703 507.367 516.527 511.947 511.943C516.527 507.363 522.707 504.74 529.183 504.627C535.66 504.513 541.927 506.917 546.667 511.333L684.333 649C689.013 653.687 691.643 660.04 691.643 666.667C691.643 673.29 689.013 679.643 684.333 684.333C682.027 686.67 679.273 688.523 676.24 689.78C673.207 691.04 669.95 691.68 666.667 691.667Z" fill="#FFD14C"/>
<path d="M441.667 383.333H275C268.37 383.333 262.011 380.7 257.322 376.01C252.634 371.323 250 364.963 250 358.333C250 351.703 252.634 345.343 257.322 340.657C262.011 335.967 268.37 333.333 275 333.333H441.667C448.297 333.333 454.657 335.967 459.343 340.657C464.033 345.343 466.667 351.703 466.667 358.333C466.667 364.963 464.033 371.323 459.343 376.01C454.657 380.7 448.297 383.333 441.667 383.333Z" fill="#FFD14C"/>
</svg>
