<svg width="107" height="83" viewBox="0 0 107 83" fill="none" xmlns="http://www.w3.org/2000/svg">
<path d="M106.998 7.44112C107.049 4.84891 105.95 2.45871 103.905 0.711072C102.795 -0.237044 100.996 -0.237044 99.8866 0.711193C98.777 1.65943 98.7769 3.19669 99.8866 4.14481C100.833 4.95356 101.341 6.0953 101.316 7.3599C101.293 8.56636 100.758 9.73129 99.8866 10.4761C98.0787 12.0209 80.0576 25.5398 65.9832 36.0587L62.5336 33.1114C72.8083 23.0661 85.559 10.645 90.5463 5.92875L91.6809 6.89835C92.7907 7.84659 94.5899 7.84671 95.6993 6.89859C96.8092 5.95048 96.8093 4.41322 95.6997 3.46498L92.4774 0.711315C91.9446 0.255952 91.2218 4.52756e-05 90.4682 4.52756e-05H90.4681C89.7144 4.52756e-05 88.9918 0.255831 88.4589 0.711072C86.7297 2.18848 76.1528 12.4533 66.6093 21.7591C64.0427 18.4398 60.6147 15.5842 56.537 13.3923C50.5772 10.1885 43.629 8.56405 35.8851 8.56405C34.1815 8.56405 32.4961 8.65583 30.8761 8.83707C29.3199 9.01116 28.2237 10.23 28.4273 11.5597C28.631 12.8892 30.0573 13.8259 31.6134 13.6519C32.9899 13.498 34.4272 13.42 35.885 13.42C47.6761 13.42 57.5669 17.9369 62.696 25.5775C57.9099 30.2507 53.7977 34.2757 51.8147 36.2178C48.2745 36.63 45.633 37.8679 43.7704 39.9906C42.0387 41.9642 41.2796 44.3213 40.476 46.8167C39.5071 49.8257 38.5052 52.9371 35.648 55.3784C34.8352 56.0728 34.5921 57.1171 35.032 58.0244C35.4718 58.9317 36.5079 59.5233 37.6572 59.5233C45.3042 59.5233 51.3652 58.1305 55.6718 55.3838C59.5528 52.9083 61.8662 49.3939 62.4132 45.1736C69.7346 39.7099 101.279 16.1534 103.905 13.9097C105.822 12.2714 106.95 9.91363 106.998 7.44112ZM61.6951 39.2621C60.8413 39.8996 60.0136 40.5175 59.2177 41.1113L56.6233 38.8945C57.3176 38.2146 58.0406 37.5067 58.7865 36.7769L61.6951 39.2621ZM52.2724 51.4924C50.0374 52.9181 47.0629 53.8681 43.3916 54.3334C44.6409 52.187 45.3417 50.0107 45.9553 48.1049C47.2724 44.0152 48.0745 41.9626 51.3197 41.2301L56.5663 45.7131C55.9886 48.0995 54.5513 50.0389 52.2724 51.4924Z" fill="#FFD14C"/>
<path d="M22.0041 15.9893C22.418 15.9893 22.8384 15.9116 23.236 15.7479C23.4911 15.6427 23.753 15.5394 24.0145 15.441C25.4501 14.8994 26.1002 13.466 25.4664 12.2392C24.8327 11.0126 23.1552 10.4571 21.7194 10.9986C21.4002 11.119 21.0801 11.2452 20.768 11.3738C19.3545 11.9561 18.761 13.4075 19.4424 14.6152C19.9323 15.4832 20.9471 15.9893 22.0041 15.9893Z" fill="#FFD14C"/>
<path d="M42.5375 62.2212C40.9697 62.2081 39.682 63.2809 39.6642 64.6216C39.5416 73.9555 37.8926 78.1196 28.4456 78.1196C23.1497 78.1196 17.5918 74.8092 13.1973 69.0375C8.35159 62.673 5.6829 54.4098 5.6829 45.77C5.6829 34.5537 9.64672 25.2211 16.8443 19.4917C17.9925 18.5777 18.0561 17.0412 16.9865 16.0601C15.9168 15.079 14.1187 15.0246 12.9705 15.9386C8.73092 19.3136 5.45061 23.6987 3.2205 28.9722C1.08344 34.0255 0 39.6772 0 45.77C0 55.3387 2.99531 64.5425 8.43385 71.6855C13.8967 78.8606 21.1908 82.9756 28.4456 82.9756C35.3846 82.9756 40.2209 80.8892 42.8198 76.7744C45.0512 73.2412 45.2941 68.677 45.3467 64.6763C45.3643 63.3354 44.1067 62.2362 42.5375 62.2212Z" fill="#FFD14C"/>
<path d="M56.5202 26.2642C56.5202 21.8041 52.2735 18.1754 47.0538 18.1754C41.8339 18.1754 37.587 21.8041 37.587 26.2642C37.587 30.7245 41.8339 34.3533 47.0538 34.3533C52.2735 34.3532 56.5202 30.7245 56.5202 26.2642ZM43.2699 26.2642C43.2699 24.4815 44.9673 23.0313 47.0538 23.0313C49.1401 23.0313 50.8373 24.4815 50.8373 26.2642C50.8373 28.0471 49.1401 29.4974 47.0538 29.4974C44.9673 29.4973 43.2699 28.0469 43.2699 26.2642Z" fill="#FFD14C"/>
<path d="M24.4926 37.2604C29.7125 37.2604 33.9591 33.6317 33.9591 29.1716C33.9591 24.7113 29.7125 21.0826 24.4926 21.0826C19.2727 21.0826 15.026 24.7113 15.026 29.1716C15.026 33.6317 19.2727 37.2604 24.4926 37.2604ZM24.4926 25.9385C26.5789 25.9385 28.2762 27.3888 28.2762 29.1716C28.2762 30.9543 26.5789 32.4045 24.4926 32.4045C22.4062 32.4045 20.7089 30.9543 20.7089 29.1716C20.7089 27.3888 22.4064 25.9385 24.4926 25.9385Z" fill="#FFD14C"/>
<path d="M26.7076 47.7566C26.7076 43.2963 22.4609 39.6675 17.241 39.6675C12.0211 39.6675 7.77441 43.2963 7.77441 47.7566C7.77441 52.2167 12.0211 55.8454 17.241 55.8454C22.4609 55.8454 26.7076 52.2167 26.7076 47.7566ZM17.241 50.9895C15.1547 50.9895 13.4573 49.5393 13.4573 47.7566C13.4573 45.9737 15.1547 44.5234 17.241 44.5234C19.3273 44.5234 21.0247 45.9737 21.0247 47.7566C21.0247 49.5392 19.3273 50.9895 17.241 50.9895Z" fill="#FFD14C"/>
<path d="M27.1868 74.7721C32.4067 74.7721 36.6535 71.1434 36.6535 66.6832C36.6535 62.2231 32.4067 58.5944 27.1868 58.5944C21.967 58.5944 17.7203 62.2231 17.7203 66.6832C17.7203 71.1434 21.967 74.7721 27.1868 74.7721ZM27.1868 63.4503C29.2732 63.4503 30.9706 64.9005 30.9706 66.6832C30.9706 68.466 29.2732 69.9162 27.1868 69.9162C25.1006 69.9162 23.4032 68.466 23.4032 66.6832C23.4032 64.9005 25.1006 63.4503 27.1868 63.4503Z" fill="#FFD14C"/>
</svg>
