<svg width="643" height="643" viewBox="0 0 643 643" fill="none" xmlns="http://www.w3.org/2000/svg">
<g clip-path="url(#clip0_47_38)">
<path d="M321.5 53.5833C268.511 53.5833 216.712 69.2964 172.654 98.7354C128.595 128.174 94.2553 170.017 73.9773 218.973C53.6993 267.928 48.3937 321.797 58.7313 373.768C69.0689 425.739 94.5855 473.477 132.054 510.946C169.523 548.414 217.261 573.931 269.232 584.269C321.203 594.606 375.072 589.301 424.027 569.023C472.983 548.745 514.825 514.405 544.265 470.346C573.704 426.288 589.417 374.489 589.417 321.5C589.417 286.317 582.487 251.478 569.023 218.973C555.559 186.468 535.824 156.933 510.946 132.054C486.067 107.176 456.532 87.4414 424.027 73.9773C391.522 60.5132 356.683 53.5833 321.5 53.5833ZM475.552 444.474L442.063 477.963C439.353 480.646 435.695 482.152 431.882 482.152C428.069 482.152 424.41 480.646 421.701 477.963L287.743 345.345C270.121 351.646 251.029 352.593 232.871 348.067C214.712 343.542 198.298 333.745 185.696 319.91C173.093 306.076 164.865 288.822 162.047 270.322C159.229 251.821 161.947 232.9 169.859 215.941L233.891 278.365L277.562 234.695L214.333 172.27C232.009 164.25 251.694 161.749 270.813 165.095C289.933 168.441 307.598 177.478 321.5 191.025C334.581 203.791 343.633 220.111 347.538 237.967C351.443 255.823 350.028 274.433 343.469 291.493L475.82 424.112C477.316 425.363 478.515 426.931 479.329 428.703C480.143 430.475 480.552 432.407 480.527 434.357C480.501 436.307 480.041 438.226 479.181 439.976C478.32 441.726 477.081 443.263 475.552 444.474Z" fill="#FFD14C"/>
</g>
<defs>
<clipPath id="clip0_47_38">
<rect width="643" height="643" fill="white"/>
</clipPath>
</defs>
</svg>
